<svg width="58" height="75" viewBox="0 0 58 75" fill="none" xmlns="http://www.w3.org/2000/svg">
<path fill-rule="evenodd" clip-rule="evenodd" d="M56.9564 33.0577C57.6045 33.4522 58 34.1561 58 34.9148L58 70.7844C58 72.4406 56.2222 73.4887 54.7731 72.6868L44.272 66.8764C44.184 66.8277 44.1002 66.7734 44.021 66.7141C43.9296 66.7793 43.8325 66.838 43.7302 66.8891L29.6536 73.9299C28.8627 74.3255 27.9965 74.1901 27.3735 73.7227L13.5212 66.5811L3.25027 72.4306C1.80081 73.2561 4.44593e-06 72.2093 4.25741e-06 70.5413L0 34.1614C0 33.3667 0.433628 32.6353 1.1309 32.2539L11.8004 26.4181C12.2143 26.0437 12.7666 25.8309 13.3398 25.8508C13.8795 25.8391 14.3996 26.0335 14.8008 26.3741L28.5383 33.493C28.6518 33.5518 28.7587 33.6198 28.8582 33.6959L42.8552 26.4932C43.3126 26.0109 43.9816 25.7467 44.6616 25.8165C45.3275 25.8077 45.9586 26.1128 46.3733 26.6144L56.9564 33.0577Z" fill="#F7F3E1"/>
<path d="M5.05701 63.6196V37.2334L11.5297 32.9278C13.3983 31.4676 14.6441 32.0586 15.7688 32.7887C19.2236 34.5438 26.4172 38.2302 27.5536 38.9345C28.6899 39.6387 30.0643 39.2279 30.6094 38.9345C33.8451 37.204 40.8033 33.5133 42.7501 32.5948C44.1718 31.7945 45.4658 32.0987 46.0724 32.5948L52.9525 37.1159C52.945 45.147 52.9345 61.6546 52.9525 63.4366C52.9706 65.2186 51.4369 64.8307 50.6678 64.414C49.6045 63.7321 47.1795 62.1365 45.985 61.2091C44.8449 60.209 43.3534 60.7924 42.7501 61.2091C39.2699 63.0646 31.9843 66.939 30.684 67.5928C29.3836 68.2465 28.0345 67.8652 27.5224 67.5928L15.3924 61.2001C13.6706 60.0403 12.7014 60.802 12.0287 61.2001C11.356 61.5981 9.68546 62.6393 8.38523 63.6196C5.50379 65.4886 4.96582 64.3983 5.05701 63.6196Z" fill="#59C9C0"/>
<path d="M18.9206 41.1553L20.0993 41.8486C22.9041 43.5085 21.746 41.4818 22.0662 40.636C22.4335 39.6659 23.5959 40.1428 24.1312 40.5026C25.0544 40.9903 27.1183 42.1019 27.9881 42.6463C28.858 43.1908 29.7866 42.8732 30.1422 42.6463L32.6448 41.3262C35.0275 39.8625 35.3011 41.1027 35.3011 41.9658C35.3011 43.3722 36.1145 42.9766 36.5902 42.7689L39.4429 41.249C40.9517 40.3427 42.0465 40.9163 42.0465 41.6815L41.8702 48.4071C41.8606 49.5805 42.277 49.5733 42.624 49.4771C43.8971 48.8591 44.3656 49.6935 44.3656 50.2496V51.6754C44.3476 53.1701 43.564 53.6262 43.1048 53.6262C42.1457 53.6481 42.0422 53.7905 42.0422 55.7205C42.0422 56.6951 41.7561 56.5281 40.2455 57.3448L30.6151 62.399C28.9131 63.3044 29.1013 63.2075 27.5115 62.399L18.9206 57.919C16.4571 56.55 16.4769 57.0951 16.4769 55.2404V42.5418C16.4309 39.815 18.1156 40.6642 18.9206 41.1553Z" fill="#45A86F"/>
<path d="M5.25699 59.0905L13.4768 53.8811L29.0944 61.8858L44.3958 53.8811L51.9833 58.5823" stroke="#299187" stroke-opacity="0.5" stroke-width="0.8697" stroke-dasharray="1.74 0.43"/>
<path d="M5.13068 50.8872L13.3614 45.815L28.9448 53.5335L44.3088 45.815L51.881 50.8872" stroke="#299187" stroke-opacity="0.5" stroke-width="0.8697" stroke-dasharray="1.74 0.43"/>
<path d="M4.67203 42.7532L13.5909 37.4781L29.0882 45.7403L44.3324 37.4781L52.0494 42.7532" stroke="#299187" stroke-opacity="0.5" stroke-width="0.8697" stroke-dasharray="1.74 0.43"/>
<path d="M17.175 33.7078L17.2719 62.206" stroke="#299187" stroke-opacity="0.5" stroke-width="0.8697" stroke-dasharray="1.74 0.43"/>
<path d="M25.2312 37.776L25.3193 66.3407" stroke="#299187" stroke-opacity="0.5" stroke-width="0.8697" stroke-dasharray="1.74 0.43"/>
<path d="M32.8709 37.776L32.959 66.3407" stroke="#299187" stroke-opacity="0.5" stroke-width="0.8697" stroke-dasharray="1.74 0.43"/>
<path d="M40.918 33.6413L41.007 62.206" stroke="#299187" stroke-opacity="0.5" stroke-width="0.8697" stroke-dasharray="1.74 0.43"/>
<path d="M48.8396 34.6864L48.9325 63.0946" stroke="#299187" stroke-opacity="0.5" stroke-width="0.8697" stroke-dasharray="1.74 0.43"/>
<path fill-rule="evenodd" clip-rule="evenodd" d="M41.922 27.0022C44.1882 24.1578 45.5435 20.549 45.5435 16.6221C45.5435 7.44197 38.1368 0 29.0001 0C19.8635 0 12.4568 7.44197 12.4568 16.6221C12.4568 20.5891 13.8398 24.2314 16.1479 27.089L26.3914 44.3516C27.5708 46.3391 30.4476 46.3391 31.6269 44.3516L41.922 27.0022Z" fill="#4C3C33"/>
<ellipse cx="29.0001" cy="17.2188" rx="5.62461" ry="5.65139" fill="#F7F2D9"/>
</svg>
